<svg width="16" height="16" viewBox="0 0 16 16" fill="none" xmlns="http://www.w3.org/2000/svg">
<path d="M5.10156 10.1631L6.38379 8.88086C6.78833 8.84605 7.20396 8.82715 7.62793 8.82715M5.10156 10.1631C5.11451 10.1685 5.12764 10.1734 5.14062 10.1787C5.74113 10.0605 6.38443 9.98479 7.05566 9.95703M5.10156 10.1631L5.87988 9.38574L6.38281 8.88086C5.77313 8.93337 5.18851 9.02284 4.63867 9.14551C4.55125 9.36652 4.4731 9.59212 4.40527 9.82227C4.62971 9.94873 4.86175 10.0632 5.10156 10.1631ZM7.62793 8.82715V9.38574M7.62793 8.82715L7.7373 8.83789C7.84462 8.85932 7.94394 8.91269 8.02246 8.99121C8.1271 9.09588 8.18652 9.23774 8.18652 9.38574L8.1748 9.49512C8.15334 9.60235 8.10093 9.7018 8.02246 9.78027L7.9375 9.84961C7.84645 9.91037 7.73901 9.94336 7.62793 9.94336M7.62793 8.82715V9.94336M7.62793 9.38574L7.05566 9.95703M7.62793 9.38574V9.94336M7.62793 9.38574L7.05566 9.95703M7.05566 9.95703C7.10922 9.95482 7.1629 9.95179 7.2168 9.9502L7.62793 9.94336M7.62793 8.18652L7.41699 8.18066C7.31433 8.17544 7.21284 8.165 7.1123 8.15234M7.62793 8.18652V7.6377L7.1123 8.15234M7.62793 8.18652C7.94996 8.18652 8.26282 8.1466 8.56348 8.07617C8.45715 7.94519 8.3481 7.81602 8.23438 7.69043L7.91309 7.35254M7.62793 8.18652V7.63672M7.1123 8.15234L7.62793 7.63672M7.1123 8.15234C6.51678 8.07736 5.96125 7.87497 5.47363 7.57227C5.68645 7.26118 5.91942 6.96491 6.17285 6.6875C6.59971 6.92755 7.09052 7.066 7.61426 7.06836C7.61884 7.07256 7.62335 7.07684 7.62793 7.08105M7.62793 7.63672L7.91309 7.35254M7.62793 7.63672V7.08105M7.62793 7.63672L7.91309 7.35254M7.62793 7.63672V7.08105M7.91309 7.35254L7.62793 7.08105" fill="#705D4B" stroke="#705D4B" stroke-width="21.3333"/>
<path d="M12.0923 15.4419H12.0933M12.0923 15.4419L11.5767 15.6548M12.0923 15.4419L11.5767 15.6548M12.0923 15.4419H12.0933M12.0923 15.4419H12.0933M12.0923 15.4419V15.4409M12.0933 15.4419V15.9995M12.0933 15.4419L12.0923 15.4409M12.0933 15.4419V15.4409M12.0933 15.9995L11.9839 15.9888C11.9123 15.9745 11.8444 15.9463 11.7837 15.9058L11.6987 15.8364C11.6462 15.7839 11.6045 15.7222 11.5767 15.6548M12.0933 15.9995C12.2043 15.9995 12.3118 15.9665 12.4028 15.9058L12.4878 15.8364C12.5547 15.7695 12.5995 15.6864 12.6255 15.5972L12.2827 15.2515M12.0933 15.9995V15.4409M11.5767 15.6548C11.569 15.6362 11.5647 15.6165 11.5591 15.5972L12.0923 15.061L12.2827 15.2515M12.0933 15.4409L12.2827 15.2515M12.0933 15.4409L12.2827 15.2515M12.0933 15.4409H12.0923M12.0933 15.4409H12.0923M11.5542 15.5825L11.813 15.3257M11.5542 15.5825C11.5546 15.5839 11.5558 15.585 11.5562 15.5864L11.8159 15.3267M11.5542 15.5825L11.813 15.3257M11.5542 15.5825C11.5515 15.5721 11.5475 15.5619 11.5454 15.5513L11.5347 15.4419V14.5005L12.0874 15.0562L11.8159 15.3267M11.813 15.3257L11.8159 15.3267M11.813 15.3257L11.8159 15.3267M12.2876 15.2466L12.6294 15.5864C12.6326 15.5746 12.6377 15.5633 12.6401 15.5513L12.6509 15.4419V14.8843M12.2876 15.2466L12.6509 14.8843M12.2876 15.2466L12.6509 14.8843M12.2876 15.2466L12.0972 15.0562L12.6509 14.5005V14.8843M12.0952 15.0474L12.6509 14.4927V14.4917M12.0952 15.0474V15.0435M12.0952 15.0474V15.0435M12.0952 15.0474L12.0923 15.0503L11.6597 14.6177M12.0952 15.0435L12.6509 14.4917M12.0952 15.0435L12.6509 14.4917M12.6509 14.4917V14.186C12.6509 14.0751 12.6177 13.9674 12.5571 13.8765L12.4878 13.7905C12.3837 13.6865 12.2424 13.628 12.0952 13.6274H12.0933C11.9454 13.6274 11.8034 13.6861 11.6987 13.7905L11.6978 13.7915M9.7251 15.019L9.61572 15.0083L9.51123 14.9761C9.44744 14.9496 9.39017 14.9105 9.34033 14.8628M9.7251 15.019V14.4771M9.7251 15.019C9.76157 15.019 9.79789 15.0154 9.8335 15.0083L9.93799 14.9761C10.0056 14.9481 10.0669 14.9067 10.1187 14.855M9.7251 15.019V14.4771M9.34033 14.8628L9.7251 14.4771M9.34033 14.8628L9.7124 14.4888M9.34033 14.8628C9.3385 14.861 9.33628 14.8597 9.33447 14.8579L9.71924 14.4722M9.7251 14.4771L9.7124 14.4888M10.1187 14.855H10.1196L9.72803 14.4634M10.1187 14.855L11.0054 13.9692L10.6128 13.5747L9.73584 14.4556M10.1187 14.855L9.73291 14.4683M9.7124 14.4888L9.71924 14.4722M9.7124 14.4888L9.71924 14.4722M9.71924 14.4722L9.72803 14.4634M9.72803 14.4634L9.73584 14.4556M9.72803 14.4634L9.73291 14.4683M14.4575 14.4634L14.8501 14.8579C14.7991 14.9079 14.7403 14.9487 14.6743 14.9761L14.5698 15.0083C14.5342 15.0154 14.4979 15.019 14.4614 15.019L14.3521 15.0083L14.2476 14.9761C14.2136 14.962 14.1813 14.9447 14.1509 14.9243L14.0669 14.855L14.4575 14.4634ZM14.4575 14.4634L14.186 14.7349L14.0659 14.854L13.1792 13.9683L13.5728 13.5737L14.4575 14.4634ZM9.32178 14.8452C9.32353 14.8471 9.32488 14.8493 9.32666 14.8511L9.71533 14.4644M9.32178 14.8452L9.69775 14.4712M9.32178 14.8452L9.69775 14.4712M9.32178 14.8452C9.29966 14.822 9.27898 14.7976 9.26123 14.771L9.20947 14.6743C9.1955 14.6406 9.18532 14.6055 9.17822 14.5698L9.16748 14.4614C9.16748 14.4247 9.17109 14.3879 9.17822 14.3521L9.20947 14.2476C9.22351 14.2137 9.24093 14.1812 9.26123 14.1509L9.33057 14.0669L9.49365 13.9028M9.69775 14.4712L9.71533 14.4644M9.69775 14.4712L9.71533 14.4644M9.69775 14.4712L9.7085 14.4614L9.71338 14.4556M9.69775 14.4712L9.71729 14.4526M9.71533 14.4644L9.72021 14.4585M11.5415 14.1118L11.687 14.4614L11.7241 14.5532M11.5415 14.1118C11.5576 13.9914 11.611 13.8785 11.6978 13.7915M11.5415 14.1118C11.5382 14.1362 11.5347 14.1611 11.5347 14.186V14.4927L11.6597 14.6177M11.5415 14.1118L11.5728 14.186L11.7241 14.5532M11.6978 13.7915L12.0923 14.186M11.6978 13.7915L12.0923 14.186M12.0923 14.186L11.7241 14.5532M12.0923 14.186L11.6597 14.6177M11.7241 14.5532L11.6597 14.6177M9.73584 14.4556L9.75244 14.4487M9.73584 14.4556L9.75244 14.4487M9.75244 14.4487L9.73291 14.4683M9.75244 14.4487L9.73291 14.4683M9.71338 14.4556L9.72021 14.4585M9.71338 14.4556L9.72021 14.4585M9.71338 14.4556L9.71729 14.4526M9.72021 14.4585L9.72217 14.4575M9.49365 13.9028L9.61084 14.186M9.49365 13.9028L9.61084 14.186M9.49365 13.9028L10.2163 13.1792L10.4995 13.4604L10.606 13.5679M9.61084 14.186L9.71924 14.4497L9.72217 14.4565M9.61084 14.186L9.72217 14.4565M9.72217 14.4565V14.4575M9.72217 14.4565L10.4165 13.7661M9.72217 14.4575L9.71729 14.4526M9.72217 14.4575L9.71729 14.4526M13.7739 13.7603L14.2007 14.186M13.7739 13.7603L13.7681 13.7661M13.7739 13.7603L13.5845 13.5728M13.7739 13.7603L13.7681 13.7661M13.7739 13.7603L14.186 14.1704L14.2007 14.186M13.7739 13.7603L14.1616 13.3726M13.7739 13.7603L13.5845 13.5728M13.7739 13.7603L14.1616 13.3726M14.2007 14.186H14.1909M14.2007 14.186H14.1909M14.1909 14.186L13.7681 13.7661M14.1909 14.186L14.8579 14.8501C14.8822 14.8254 14.9051 14.7997 14.9243 14.771L14.9761 14.6743C14.9901 14.6405 15.0012 14.6056 15.0083 14.5698L15.019 14.4614C15.019 14.3882 15.0041 14.3152 14.9761 14.2476C14.962 14.2136 14.9447 14.1813 14.9243 14.1509L14.855 14.0669L14.1616 13.3726M13.7681 13.7661L13.5737 13.5718L13.5796 13.5669M10.4116 13.7603L10.606 13.5679M10.4116 13.7603L10.4165 13.7661M10.4116 13.7603L10.4165 13.7661M10.4116 13.7603L10.606 13.5679M10.606 13.5679L10.6108 13.5728L10.4165 13.7661M13.5796 13.5669L13.5845 13.5728M13.5796 13.5669L13.5845 13.5728M13.5796 13.5669L13.6431 13.5044L13.9683 13.1792L14.1616 13.3726M13.1782 13.1782C13.0739 13.2831 13.0152 13.4248 13.0151 13.5728L13.0259 13.6821C13.0472 13.7889 13.0995 13.8878 13.1772 13.9663L13.5708 13.5728L13.1782 13.1782ZM13.1782 13.1782L13.5728 13.5708L13.5776 13.5659L13.9663 13.1772C13.8878 13.0995 13.7889 13.0472 13.6821 13.0259L13.5728 13.0151C13.4248 13.0152 13.2831 13.0739 13.1782 13.1782ZM10.6196 13.5776L11.0083 13.9673C11.0864 13.8886 11.1393 13.7893 11.1606 13.6821L11.1714 13.5728C11.1714 13.427 11.1137 13.2875 11.0122 13.1831M10.6196 13.5776L11.0122 13.1831M10.6196 13.5776L10.6147 13.5728L11.0083 13.1782C11.0098 13.1797 11.0108 13.1816 11.0122 13.1831M10.6196 13.5776L11.0122 13.1831M10.2446 13.2036L10.6128 13.5708L10.8442 13.3403L11.0073 13.1772C10.9287 13.0993 10.8292 13.0471 10.7222 13.0259L10.6128 13.0151C10.4896 13.0152 10.3718 13.0574 10.2749 13.1313M10.2446 13.2036L10.2749 13.1313M10.2446 13.2036L10.2183 13.1772C10.2356 13.16 10.2557 13.146 10.2749 13.1313M10.2446 13.2036L10.2749 13.1313M9.56299 12.5288L9.12939 12.0972L8.59814 12.6284C8.61065 12.6318 8.62251 12.6376 8.63525 12.6401L8.74463 12.6509H9.30127L8.94092 12.2905L9.30225 12.6509H9.44189M9.56299 12.5288L9.44189 12.6509M9.56299 12.5288L9.44189 12.6509M9.56299 12.5288L9.56494 12.5308M9.44189 12.6509H9.4458M14.6196 12.5239L14.4937 12.6509H14.4917M14.6196 12.5239L14.6187 12.5229M14.6196 12.5239L14.6187 12.5229M14.6196 12.5239L14.7749 12.3677M14.4917 12.6509L14.6187 12.5229M14.4917 12.6509L15.0474 12.0933M14.4917 12.6509H14.186L14.1118 12.6431C14.0276 12.6318 13.947 12.6041 13.8765 12.5571L13.7905 12.4878C13.7122 12.4094 13.6596 12.3098 13.6382 12.2026L13.6274 12.0933C13.6274 11.9824 13.6606 11.8747 13.7212 11.7837L13.7905 11.6987C13.8776 11.6117 13.9911 11.5577 14.1118 11.5415M14.6187 12.5229L14.771 12.3696M14.7427 12.6509H14.5005L14.6216 12.5298M14.7427 12.6509L14.6216 12.5298M14.7427 12.6509H14.7476M14.7427 12.6509L14.6216 12.5298M14.6216 12.5298L14.6235 12.5278M14.7476 12.6509L14.6235 12.5278M14.7476 12.6509H14.8843M14.7476 12.6509L14.6235 12.5278M14.6235 12.5278L15.0562 12.0972L15.2466 12.2876M15.2466 12.2876L14.8843 12.6509M15.2466 12.2876L15.5864 12.6294C15.5746 12.6326 15.5633 12.6377 15.5513 12.6401L15.4419 12.6509M15.2466 12.2876L15.2437 12.2905L14.8843 12.6509M14.8843 12.6509H15.2104M15.4419 12.6509V12.4888M15.4419 12.6509V12.4888M15.4419 12.6509H15.2104M15.4419 12.4888L15.3257 12.3726M15.4419 12.4888L15.3257 12.3726M15.3257 12.3726L15.2104 12.6509M15.3257 12.3726L15.2104 12.6509M9.56494 12.5308L9.4458 12.6509M9.56494 12.5308L9.4458 12.6509M9.56494 12.5308L9.68604 12.6509H9.4458M9.69385 12.6509H9.69287L9.56885 12.5269M9.69385 12.6509L9.56982 12.5259M9.69385 12.6509H9.7251M9.69385 12.6509L9.56982 12.5259M9.56885 12.5269L9.56982 12.5259M9.56885 12.5269L9.56982 12.5259M9.56885 12.5269L9.56689 12.5249M9.56982 12.5259L9.63428 12.4614M9.56982 12.5259L9.56787 12.5239M9.56982 12.5259L9.63428 12.4614M9.56982 12.5259L9.41357 12.3696M9.7251 12.4985V12.6509M9.7251 12.4985L9.63428 12.4614M9.7251 12.4985V12.6509M9.7251 12.4985L9.63428 12.4614M9.7251 12.6509H9.99951L10.0728 12.6431C10.1573 12.6318 10.2383 12.6043 10.3091 12.5571L10.394 12.4878V12.4868M15.4419 12.0933L15.4507 12.1011M15.4419 12.0933L15.2515 12.2827M15.4419 12.0933H15.4409M15.4419 12.0933L15.2515 12.2827M15.4419 12.0933L15.4507 12.1011M15.4419 12.0933V12.0923M15.4419 12.0933V12.0923M15.4419 12.0933H15.4409M15.4507 12.1011L15.8364 12.4868M15.4507 12.1011L15.8364 12.4868M15.8364 12.4868V12.4878C15.7695 12.5547 15.6864 12.5995 15.5972 12.6255L15.2515 12.2827M15.8364 12.4868C15.9146 12.4084 15.9673 12.3096 15.9888 12.2026L15.9995 12.0933C15.9995 12.0188 15.9846 11.9458 15.9565 11.8784M15.2515 12.2827L15.1724 12.2036M8.22803 11.8794L8.74365 12.0923M8.22803 11.8794C8.20028 11.9464 8.18604 12.0193 8.18604 12.0933L8.19678 12.2026C8.21824 12.3098 8.27074 12.4094 8.34912 12.4878L8.43408 12.5571C8.46426 12.5773 8.49643 12.594 8.52979 12.6079M8.22803 11.8794L8.74268 12.0913L8.74365 12.0923M8.22803 11.8794C8.24189 11.8459 8.25959 11.814 8.27979 11.7837L8.34912 11.6987C8.41604 11.6318 8.49914 11.5851 8.58838 11.5591L9.12451 12.0923L8.58838 12.6255C8.56874 12.6197 8.54865 12.6158 8.52979 12.6079M8.74365 12.0923V12.0933M8.74365 12.0923V12.0933M8.74365 12.0933L8.52979 12.6079M8.74365 12.0933L8.52979 12.6079M9.56689 12.5249L9.56787 12.5239M9.56689 12.5249L9.56787 12.5239M9.56689 12.5249L9.41064 12.3687M9.56787 12.5239L9.41357 12.3696M9.41357 12.3696L9.41064 12.3687M9.41357 12.3696L9.41064 12.3687M9.41064 12.3687L9.13623 12.0942M14.771 12.3696L14.7749 12.3677M14.771 12.3696L14.7749 12.3677M14.771 12.3696L15.0474 12.0933M14.7749 12.3677L15.0513 12.0933L15.0493 12.0903M15.4409 12.0933L15.1724 12.2036M15.4409 12.0933L15.1724 12.2036M15.1724 12.2036L15.061 12.0923L15.5972 11.5591C15.6866 11.5851 15.7694 11.6317 15.8364 11.6987M15.0474 12.0933L15.0464 12.0923M15.0474 12.0933L15.0464 12.0923M14.1118 11.5415L14.5532 11.7241M14.1118 11.5415L14.5532 11.7241M14.1118 11.5415L14.186 11.5347H14.4937L14.6177 11.6597M14.5532 11.7241L14.6177 11.6597M14.5532 11.7241L14.6177 11.6597M14.6177 11.6597L15.0493 12.0903M15.0493 12.0903L15.0464 12.0923M15.0493 12.0903L15.0464 12.0923M10.394 12.4868L9.99951 12.0923M10.394 12.4868C10.4723 12.4084 10.5259 12.3097 10.5474 12.2026L10.5581 12.0933C10.5581 11.9453 10.4987 11.8034 10.394 11.6987C10.3155 11.6202 10.2162 11.5668 10.1089 11.5454L9.99951 11.5347H9.69482M10.394 12.4868L9.99951 12.0923M9.13623 12.0942L9.13818 12.0933M9.13623 12.0942L9.13818 12.0933M9.13623 12.0942L9.13428 12.0923L9.56689 11.6597M9.13818 12.0933V12.0923M9.13818 12.0933V12.0923M9.13818 12.0923L9.56787 11.6616M9.13818 12.0923L9.56787 11.6616M9.56787 11.6616L9.99951 12.0923M9.56787 11.6616L9.99951 12.0923M15.4419 12.0923L15.9565 11.8784M15.4419 12.0923H15.4409L15.4429 12.0913M15.9565 11.8784C15.9288 11.8119 15.8884 11.7507 15.8364 11.6987M15.9565 11.8784L15.4429 12.0913M15.8364 11.6987L15.4429 12.0913M15.8364 11.6987L15.4429 12.0913M9.56689 11.6597L9.56787 11.6606M9.56689 11.6597L9.56787 11.6606M9.56689 11.6597L9.69287 11.5347H9.69482M9.56787 11.6606L9.69482 11.5347M9.56787 11.6606L9.69482 11.5347M9.56299 11.6558L9.12939 12.0874L8.93896 11.897M9.56299 11.6558L9.44287 11.5347M9.56299 11.6558L9.44287 11.5347M9.56299 11.6558L9.68604 11.5347H9.44287M8.93896 11.897L9.30225 11.5347M8.93896 11.897L8.94092 11.895L9.30225 11.5347M8.93896 11.897L8.85791 11.8159M9.30225 11.5347H9.44287M9.30225 11.5347H8.9751M14.6216 11.6558L15.0562 12.0874L15.5864 11.5562C15.5746 11.553 15.5633 11.5478 15.5513 11.5454L15.4419 11.5347H14.7437M14.6216 11.6558L14.7437 11.5347M14.6216 11.6558L14.5005 11.5347H14.7437M14.6216 11.6558L14.7437 11.5347M8.85791 11.8159L8.9751 11.5347M8.85791 11.8159L8.85889 11.813L8.9751 11.5347M8.85791 11.8159L8.59912 11.5562C8.61124 11.5529 8.62291 11.5479 8.63525 11.5454L8.74463 11.5347H8.9751M11.0083 11.0083L10.9214 10.9214L10.6118 10.6138L10.2446 10.981M11.0083 11.0083L11.0024 11.0122C10.8981 11.1136 10.7585 11.1714 10.6128 11.1714L10.5034 11.1606C10.4202 11.144 10.3427 11.1068 10.2749 11.0552M11.0083 11.0083C11.0867 10.9295 11.1393 10.8296 11.1606 10.7222L11.1714 10.6128C11.1713 10.4897 11.129 10.3717 11.0552 10.2749M11.0083 11.0083L10.6138 10.6118L10.8325 10.394L10.981 10.2446M10.2749 11.0552L10.2446 10.981M10.2749 11.0552C10.2555 11.0404 10.2358 11.0257 10.2183 11.0083L10.2446 10.981M10.2749 11.0552L10.2446 10.981M13.5728 11.1714L13.4634 11.1606C13.3582 11.1397 13.261 11.088 13.1831 11.0122M13.5728 11.1714V10.6245M13.5728 11.1714C13.6837 11.1714 13.7913 11.1381 13.8823 11.0776L13.9673 11.0083L13.5776 10.6196M13.5728 11.1714V10.6245M13.1831 11.0122L13.5728 10.6245M13.1831 11.0122L13.5776 10.6196M13.1831 11.0122L13.1782 11.0083M13.5728 10.6245L13.5776 10.6196M13.5776 10.6196L13.5728 10.6147L13.2651 10.9214L13.1782 11.0083M13.1782 11.0083L13.2749 10.9106L13.1772 11.0073M13.1782 11.0083L13.1772 11.0073M13.1772 11.0073L13.4683 10.7173L13.5718 10.6128L13.1772 10.2183C13.0732 10.323 13.0152 10.4651 13.0151 10.6128L13.0259 10.7222C13.0471 10.8292 13.0993 10.9287 13.1772 11.0073ZM10.0229 10.813L9.49268 10.2827M10.0229 10.813L10.4165 10.4194M10.0229 10.813L10.2163 11.0063L10.6108 10.6128L10.4165 10.4194M10.0229 10.813L10.4165 10.4194M9.49268 10.2827L9.60986 10.0015M9.49268 10.2827L9.33057 10.1196M9.49268 10.2827L9.60986 10.0015M9.60986 10.0015H9.99658M9.60986 10.0015H9.44775M9.99658 10.0015L10.4165 10.4194M9.99658 10.0015H9.98584M9.99658 10.0015L9.99561 10.0005M14.855 10.1196L13.9692 11.0054L13.5796 10.6177M14.855 10.1196V10.1187L14.7358 10.0005M14.855 10.1196C14.8903 10.0843 14.9185 10.0431 14.9429 10.0005H14.7358M14.855 10.1196L14.7358 10.0005M13.5796 10.6177L13.7739 10.4243M13.5796 10.6177L13.5747 10.6128L13.769 10.4194M13.5796 10.6177L13.7739 10.4243M13.7739 10.4243L13.769 10.4194M13.7739 10.4243L13.769 10.4194M13.769 10.4194L14.1909 10.0005H14.7358M10.981 10.2446L11.0552 10.2749M10.981 10.2446L11.0552 10.2749M10.981 10.2446L11.0083 10.2183C11.0257 10.2358 11.0404 10.2555 11.0552 10.2749M10.7905 10.0005L10.0054 10.0015L10.6128 10.6108L10.6177 10.606L11.0063 10.2163L10.7905 10.0005ZM10.7905 10.0005L10.6128 9.82275M10.7905 10.0005H10.6128M12.4868 10.394C12.3823 10.4985 12.2411 10.558 12.0933 10.5581M12.4868 10.394L12.0923 10.0005M12.4868 10.394H12.4878M12.4868 10.394L12.0933 10.0005M12.0933 10.5581L12.0923 10.0005M12.0933 10.5581V10.0005M12.0933 10.5581L11.9839 10.5474C11.9124 10.5331 11.8444 10.5048 11.7837 10.4644L11.6987 10.395L11.6978 10.394M12.0933 10.5581L12.0923 10.0005M12.0933 10.5581V10.0005M12.0923 10.0005L11.6978 10.394M12.0923 10.0005H11.5347L11.5415 10.0737C11.5576 10.1942 11.611 10.307 11.6978 10.394M12.0923 10.0005L11.6978 10.394M12.0933 10.0005L12.1519 10.0581M12.0933 10.0005L12.1519 10.0581M12.0933 10.0005H12.6509C12.6507 10.1482 12.5921 10.2895 12.4878 10.394M12.1519 10.0581L12.4878 10.394M12.1519 10.0581L12.4878 10.394M9.33057 10.1196L9.44775 10.0015M9.33057 10.1196C9.29572 10.0848 9.26809 10.044 9.24365 10.0015H9.44775M9.33057 10.1196L9.44775 10.0015M9.44775 10.0015L9.72119 9.72803M9.44775 10.0015H9.24268V9.99951L9.20947 9.93799C9.19552 9.90422 9.1853 9.86917 9.17822 9.8335L9.16748 9.7251C9.16748 9.6883 9.17105 9.65163 9.17822 9.61572L9.20947 9.51123C9.2368 9.44534 9.27674 9.38539 9.32666 9.33447L9.72119 9.72803M9.98584 10.0015H9.83838M9.98584 10.0015V10.0005M9.98584 10.0015V10.0005M9.83838 10.0015V10.0005M9.83838 10.0015V10.0005M9.83838 10.0015H9.44873L9.72217 9.72803M9.83838 10.0005H9.98584M9.83838 10.0005H9.99561M9.98584 10.0005H9.99561M9.98584 10.0005L9.73584 9.75146M9.98584 10.0005H9.83936M9.98584 10.0005H9.83936M9.98584 10.0005L9.73584 9.75146M9.99561 10.0005L9.72217 9.72803M10.6128 10.0005V9.82275M10.6128 10.0005V9.82275M10.6128 10.0005H10.0054L9.72803 9.72217M10.6128 9.82275L10.2827 9.49268M9.72119 9.72803L9.44971 10.0005H9.45068L9.72217 9.72803M9.72119 9.72803H9.72217M9.83936 10.0005L9.73584 9.75146M9.83936 10.0005L9.73584 9.75146M11.6597 9.56689L11.5347 9.69287V9.99951H11.5728M11.6597 9.56689L11.7241 9.63135M11.6597 9.56689L11.6606 9.56787M11.6597 9.56689L11.8159 9.41064M11.7241 9.63135L11.5728 9.99951M11.7241 9.63135L12.0923 9.99951M11.7241 9.63135L11.814 9.41553M11.7241 9.63135V9.63232M11.7241 9.63135L12.0923 9.99951M11.7241 9.63135L11.6606 9.56787M11.7241 9.63135L11.814 9.41553M11.5728 9.99951H12.0913M11.5728 9.99951L11.7241 9.63232M12.4604 9.63135L12.3677 9.7251L12.0923 9.99951M12.4604 9.63135L12.4995 9.7251M12.4604 9.63135L12.4995 9.7251M12.4604 9.63135L12.5249 9.56689M12.4995 9.7251L12.6128 9.99951M12.4995 9.7251L12.6128 9.99951M12.6128 9.99951H12.0923M12.6128 9.99951H12.6509V9.69189L12.5249 9.56689M12.0923 9.99951L12.5249 9.56689M12.0923 9.99951H12.0913M14.4683 9.73291L14.2017 9.99756M14.4683 9.73291L14.4634 9.72803M14.4683 9.73291L14.2017 9.99756M14.4683 9.73291L14.7329 9.99756M14.4683 9.73291L14.8628 9.34033M14.4683 9.73291L14.7329 9.99756M14.4683 9.73291L14.4634 9.72803M14.4683 9.73291L14.8628 9.34033M14.2017 9.99756H14.1919L14.4634 9.72803M14.2017 9.99756H14.7329M14.4634 9.72803L14.8579 9.33447C14.8597 9.33628 14.861 9.3385 14.8628 9.34033M14.7329 9.99756H14.9438C14.9728 9.94628 14.9967 9.89237 15.0083 9.83447L15.019 9.7251C15.019 9.58121 14.9621 9.44404 14.8628 9.34033M12.5249 9.56689L12.0923 9.13428V9.13525L11.8159 9.41064M11.814 9.41553L11.8159 9.41064M11.814 9.41553L11.6606 9.56787M11.814 9.41553L11.6606 9.56787M11.814 9.41553L11.8159 9.41064M12.0913 9.99951L11.7241 9.63232M12.0913 9.99951L11.7241 9.63232M9.72803 9.72217L10.2827 9.49268M9.72803 9.72217L10.2827 9.49268M9.72803 9.72217L9.33447 9.32666C9.35938 9.30224 9.38664 9.28051 9.41553 9.26123L9.51123 9.20947C9.5789 9.18144 9.65185 9.16748 9.7251 9.16748L9.8335 9.17822C9.86917 9.1853 9.90422 9.19552 9.93799 9.20947C10.0057 9.2375 10.0678 9.27877 10.1196 9.33057L10.2827 9.49268M11.6558 9.56299L11.5347 9.68506V9.44189M11.6558 9.56299L11.5347 9.44189M11.6558 9.56299L12.0874 9.12939L11.8159 8.85791M11.6558 9.56299L11.5347 9.44189M11.5347 9.44189V8.97412M12.5288 9.56299L12.6509 9.68506V9.44189M12.5288 9.56299L12.6509 9.44189M12.5288 9.56299L12.6509 9.44189M12.5288 9.56299L12.0972 9.12939L12.4839 8.74463M12.6509 9.44189V8.74463C12.6509 8.69636 12.6424 8.64893 12.6304 8.60303M11.5347 8.97412L11.8159 8.85791M11.5347 8.97412L11.8159 8.85791M11.5347 8.97412V8.74463C11.5347 8.69503 11.5434 8.64618 11.5562 8.59912L11.8159 8.85791M12.4888 8.74463L12.6304 8.60303M12.4888 8.74463H12.4839M12.4888 8.74463L12.6304 8.60303M12.4888 8.74463H12.4839M12.6304 8.60303C12.6299 8.60133 12.6289 8.59983 12.6284 8.59814L12.4839 8.74463M12.0923 8.74463H12.0913M12.0923 8.74463L11.981 9.01221M12.0923 8.74463L11.981 9.01221M12.0923 8.74463L11.9028 8.93311M12.0923 8.74463H12.0913M12.0923 8.74463L11.9028 8.93311M12.0913 8.74463V8.74365V8.18604M12.0913 8.74463V8.7417M12.0913 8.18604H12.0933L12.2026 8.19678C12.3098 8.21824 12.4094 8.27074 12.4878 8.34912C12.5546 8.41594 12.5994 8.49929 12.6255 8.58838L12.0933 9.12451L11.981 9.01221M12.0913 8.18604C12.0179 8.18626 11.9459 8.2005 11.8794 8.22803M12.0913 8.18604V8.7417M11.981 9.01221L11.9028 8.93311M11.9028 8.93311L11.5591 8.58838C11.5851 8.49914 11.6318 8.41604 11.6987 8.34912C11.751 8.29693 11.8124 8.25575 11.8794 8.22803M11.8794 8.22803L12.0913 8.7417M11.8794 8.22803L12.0913 8.7417M14.1812 10.0005L13.5728 10.6108L13.4644 10.5034L13.1792 10.2163L13.396 10.0005H14.1812ZM14.8511 9.32666L14.1831 9.99756L13.397 9.99854L14.0659 9.33057H14.0669C14.1715 9.22606 14.3136 9.16748 14.4614 9.16748L14.5708 9.17822C14.6759 9.19934 14.7734 9.2506 14.8511 9.32666Z" fill="#705D4B" stroke="#705D4B" stroke-width="21.3333"/>
</svg>
