<svg width="16" height="16" viewBox="0 0 16 16" fill="none" xmlns="http://www.w3.org/2000/svg">
<mask id="path-1-inside-1_7_2045" fill="white">
<path d="M1.00024 16H2.25054C2.80218 16 3.25078 15.5509 3.25078 14.9998V13.2693C3.25078 12.7177 2.80218 12.2691 2.25054 12.2691H1.00024C0.448608 12.2691 0 12.7177 0 13.2693V14.9998C0 15.5509 0.448608 16 1.00024 16ZM1.00024 13.2693H2.25054L2.25154 14.9998H1.00024V13.2693ZM5.25127 16H6.50157C7.0532 16 7.50181 15.5509 7.50181 14.9998V8.79826C7.50181 8.24713 7.0532 7.79802 6.50157 7.79802H5.25127C4.69963 7.79802 4.25102 8.24713 4.25102 8.79826V14.9998C4.25102 15.5509 4.69963 16 5.25127 16ZM5.25127 8.79826H6.50157L6.50257 14.9998H5.25127V8.79826ZM9.50229 9.53844C8.95066 9.53844 8.50205 9.98705 8.50205 10.5387V14.9998C8.50205 15.5509 8.95066 16 9.50229 16H10.7526C11.3042 16 11.7528 15.5509 11.7528 14.9998V10.5387C11.7528 9.98705 11.3042 9.53844 10.7526 9.53844H9.50229ZM9.50229 14.9998V10.5387H10.7526L10.7536 14.9998H9.50229ZM16.0039 14.9998V5.28742C16.0039 4.73578 15.5552 4.28718 15.0036 4.28718H13.7533C13.2017 4.28718 12.7531 4.73578 12.7531 5.28742V14.9998C12.7531 15.5509 13.2017 16 13.7533 16H15.0036C15.5552 16 16.0039 15.5509 16.0039 14.9998ZM13.7533 5.28742H15.0036L15.0046 14.9998H13.7533V5.28742ZM1.97398 7.37142L5.74789 3.59751C5.82087 3.52486 5.91445 3.47643 6.01591 3.4588C6.11738 3.44118 6.22181 3.45521 6.31502 3.49899L9.29374 4.89982C9.57305 5.0313 9.88612 5.07342 10.1902 5.02043C10.4944 4.96745 10.7748 4.82194 10.9931 4.60375L14.7376 0.859851C14.7853 0.813717 14.8234 0.758531 14.8496 0.697514C14.8758 0.636498 14.8896 0.570872 14.8902 0.504466C14.8908 0.438061 14.8781 0.372205 14.853 0.310742C14.8278 0.249279 14.7907 0.19344 14.7438 0.146482C14.6968 0.0995243 14.641 0.0623887 14.5795 0.0372422C14.518 0.0120957 14.4522 -0.000558164 14.3858 1.88829e-05C14.3194 0.00059593 14.2537 0.0143924 14.1927 0.0406032C14.1317 0.066814 14.0765 0.104914 14.0304 0.152681L10.286 3.89708C10.2132 3.96971 10.1198 4.01814 10.0185 4.03577C9.91717 4.0534 9.81289 4.03938 9.71984 3.99561L6.74112 2.59377C6.46141 2.46306 6.14829 2.42145 5.84415 2.47459C5.54001 2.52772 5.25954 2.67303 5.04071 2.89084L1.26681 6.66475C1.21904 6.71088 1.18094 6.76607 1.15473 6.82709C1.12852 6.8881 1.11472 6.95373 1.11414 7.02013C1.11357 7.08654 1.12622 7.1524 1.15137 7.21386C1.17651 7.27532 1.21365 7.33116 1.26061 7.37812C1.30756 7.42508 1.3634 7.46221 1.42487 7.48736C1.48633 7.51251 1.55218 7.52516 1.61859 7.52458C1.685 7.524 1.75062 7.51021 1.81164 7.484C1.87266 7.45779 1.92784 7.41969 1.97398 7.37192V7.37142Z"/>
</mask>
<path d="M1.00024 16H2.25054C2.80218 16 3.25078 15.5509 3.25078 14.9998V13.2693C3.25078 12.7177 2.80218 12.2691 2.25054 12.2691H1.00024C0.448608 12.2691 0 12.7177 0 13.2693V14.9998C0 15.5509 0.448608 16 1.00024 16ZM1.00024 13.2693H2.25054L2.25154 14.9998H1.00024V13.2693ZM5.25127 16H6.50157C7.0532 16 7.50181 15.5509 7.50181 14.9998V8.79826C7.50181 8.24713 7.0532 7.79802 6.50157 7.79802H5.25127C4.69963 7.79802 4.25102 8.24713 4.25102 8.79826V14.9998C4.25102 15.5509 4.69963 16 5.25127 16ZM5.25127 8.79826H6.50157L6.50257 14.9998H5.25127V8.79826ZM9.50229 9.53844C8.95066 9.53844 8.50205 9.98705 8.50205 10.5387V14.9998C8.50205 15.5509 8.95066 16 9.50229 16H10.7526C11.3042 16 11.7528 15.5509 11.7528 14.9998V10.5387C11.7528 9.98705 11.3042 9.53844 10.7526 9.53844H9.50229ZM9.50229 14.9998V10.5387H10.7526L10.7536 14.9998H9.50229ZM16.0039 14.9998V5.28742C16.0039 4.73578 15.5552 4.28718 15.0036 4.28718H13.7533C13.2017 4.28718 12.7531 4.73578 12.7531 5.28742V14.9998C12.7531 15.5509 13.2017 16 13.7533 16H15.0036C15.5552 16 16.0039 15.5509 16.0039 14.9998ZM13.7533 5.28742H15.0036L15.0046 14.9998H13.7533V5.28742ZM1.97398 7.37142L5.74789 3.59751C5.82087 3.52486 5.91445 3.47643 6.01591 3.4588C6.11738 3.44118 6.22181 3.45521 6.31502 3.49899L9.29374 4.89982C9.57305 5.0313 9.88612 5.07342 10.1902 5.02043C10.4944 4.96745 10.7748 4.82194 10.9931 4.60375L14.7376 0.859851C14.7853 0.813717 14.8234 0.758531 14.8496 0.697514C14.8758 0.636498 14.8896 0.570872 14.8902 0.504466C14.8908 0.438061 14.8781 0.372205 14.853 0.310742C14.8278 0.249279 14.7907 0.19344 14.7438 0.146482C14.6968 0.0995243 14.641 0.0623887 14.5795 0.0372422C14.518 0.0120957 14.4522 -0.000558164 14.3858 1.88829e-05C14.3194 0.00059593 14.2537 0.0143924 14.1927 0.0406032C14.1317 0.066814 14.0765 0.104914 14.0304 0.152681L10.286 3.89708C10.2132 3.96971 10.1198 4.01814 10.0185 4.03577C9.91717 4.0534 9.81289 4.03938 9.71984 3.99561L6.74112 2.59377C6.46141 2.46306 6.14829 2.42145 5.84415 2.47459C5.54001 2.52772 5.25954 2.67303 5.04071 2.89084L1.26681 6.66475C1.21904 6.71088 1.18094 6.76607 1.15473 6.82709C1.12852 6.8881 1.11472 6.95373 1.11414 7.02013C1.11357 7.08654 1.12622 7.1524 1.15137 7.21386C1.17651 7.27532 1.21365 7.33116 1.26061 7.37812C1.30756 7.42508 1.3634 7.46221 1.42487 7.48736C1.48633 7.51251 1.55218 7.52516 1.61859 7.52458C1.685 7.524 1.75062 7.51021 1.81164 7.484C1.87266 7.45779 1.92784 7.41969 1.97398 7.37192V7.37142Z" fill="#829B85"/>
<path d="M1.00024 13.2693V-0.952881H-13.222V13.2693H1.00024ZM2.25054 13.2693L16.4728 13.2611L16.4645 -0.952881H2.25054V13.2693ZM2.25154 14.9998V29.222H16.482L16.4738 14.9915L2.25154 14.9998ZM1.00024 14.9998H-13.222V29.222H1.00024V14.9998ZM5.25127 8.79826V-5.42396H-8.97096V8.79826H5.25127ZM6.50157 8.79826L20.7238 8.79597L20.7215 -5.42396H6.50157V8.79826ZM6.50257 14.9998V29.222H20.7271L20.7248 14.9975L6.50257 14.9998ZM5.25127 14.9998H-8.97096V29.222H5.25127V14.9998ZM9.50229 14.9998H-4.71993V29.222H9.50229V14.9998ZM9.50229 10.5387V-3.68354H-4.71993V10.5387H9.50229ZM10.7526 10.5387L24.9748 10.5355L24.9716 -3.68354H10.7526V10.5387ZM10.7536 14.9998V29.222H24.979L24.9758 14.9966L10.7536 14.9998ZM13.7533 5.28742V-8.9348H-0.468908V5.28742H13.7533ZM15.0036 5.28742L29.2258 5.28595L29.2244 -8.9348H15.0036V5.28742ZM15.0046 14.9998V29.222H29.2283L29.2268 14.9983L15.0046 14.9998ZM13.7533 14.9998H-0.468908V29.222H13.7533V14.9998ZM1.97398 7.37142L-8.08265 -2.68521L-12.2482 1.48038V7.37142H1.97398ZM5.74789 3.59751L-4.28568 -6.48213L-4.29722 -6.47064L-4.30874 -6.45912L5.74789 3.59751ZM6.31502 3.49899L12.3676 -9.37107L12.3612 -9.37405L6.31502 3.49899ZM9.29374 4.89982L15.3509 -7.96807L15.3463 -7.97023L9.29374 4.89982ZM10.9931 4.60375L21.045 14.6651L21.0491 14.6611L10.9931 4.60375ZM14.7376 0.859851L4.85721 -9.37003L4.76865 -9.2845L4.68159 -9.19745L14.7376 0.859851ZM14.0304 0.152681L24.087 10.2093L24.1744 10.1219L24.2603 10.033L14.0304 0.152681ZM10.286 3.89708L20.3316 13.9647L20.3371 13.9592L20.3426 13.9537L10.286 3.89708ZM9.71984 3.99561L3.66375 16.864L3.66591 16.865L9.71984 3.99561ZM6.74112 2.59377L12.7972 -10.2746L12.7797 -10.2828L12.7622 -10.291L6.74112 2.59377ZM5.04071 2.89084L-4.99248 -7.18917L-5.00421 -7.17749L-5.01591 -7.16579L5.04071 2.89084ZM1.26681 6.66475L11.1472 16.8946L11.236 16.8088L11.3234 16.7214L1.26681 6.66475ZM1.97398 7.37192L12.2039 17.2523L16.1962 13.1187V7.37192H1.97398ZM1.00024 16V30.2222H2.25054V16V1.77778H1.00024V16ZM2.25054 16V30.2222C10.6615 30.2222 17.473 23.401 17.473 14.9998H3.25078H-10.9714C-10.9714 7.70082 -5.05718 1.77778 2.25054 1.77778V16ZM3.25078 14.9998H17.473V13.2693H3.25078H-10.9714V14.9998H3.25078ZM3.25078 13.2693H17.473C17.473 4.86299 10.6569 -1.95312 2.25054 -1.95312V12.2691V26.4913C-5.05254 26.4913 -10.9714 20.5724 -10.9714 13.2693H3.25078ZM2.25054 12.2691V-1.95312H1.00024V12.2691V26.4913H2.25054V12.2691ZM1.00024 12.2691V-1.95312C-7.40611 -1.95312 -14.2222 4.86299 -14.2222 13.2693H0H14.2222C14.2222 20.5724 8.30332 26.4913 1.00024 26.4913V12.2691ZM0 13.2693H-14.2222V14.9998H0H14.2222V13.2693H0ZM0 14.9998H-14.2222C-14.2222 23.401 -7.41075 30.2222 1.00024 30.2222V16V1.77778C8.30797 1.77778 14.2222 7.70082 14.2222 14.9998H0ZM1.00024 13.2693V27.4916H2.25054V13.2693V-0.952881H1.00024V13.2693ZM2.25054 13.2693L-11.9717 13.2776L-11.9707 15.008L2.25154 14.9998L16.4738 14.9915L16.4728 13.2611L2.25054 13.2693ZM2.25154 14.9998V0.777535H1.00024V14.9998V29.222H2.25154V14.9998ZM1.00024 14.9998H15.2225V13.2693H1.00024H-13.222V14.9998H1.00024ZM5.25127 16V30.2222H6.50157V16V1.77778H5.25127V16ZM6.50157 16V30.2222C14.9126 30.2222 21.724 23.401 21.724 14.9998H7.50181H-6.72041C-6.72041 7.70082 -0.80616 1.77778 6.50157 1.77778V16ZM7.50181 14.9998H21.724V8.79826H7.50181H-6.72041V14.9998H7.50181ZM7.50181 8.79826H21.724C21.724 0.39705 14.9126 -6.4242 6.50157 -6.4242V7.79802V22.0202C-0.806152 22.0202 -6.72041 16.0972 -6.72041 8.79826H7.50181ZM6.50157 7.79802V-6.4242H5.25127V7.79802V22.0202H6.50157V7.79802ZM5.25127 7.79802V-6.4242C-3.15972 -6.4242 -9.9712 0.39705 -9.9712 8.79826H4.25102H18.4732C18.4732 16.0972 12.559 22.0202 5.25127 22.0202V7.79802ZM4.25102 8.79826H-9.9712V14.9998H4.25102H18.4732V8.79826H4.25102ZM4.25102 14.9998H-9.9712C-9.9712 23.401 -3.15973 30.2222 5.25127 30.2222V16V1.77778C12.559 1.77778 18.4732 7.70082 18.4732 14.9998H4.25102ZM5.25127 8.79826V23.0205H6.50157V8.79826V-5.42396H5.25127V8.79826ZM6.50157 8.79826L-7.72066 8.80056L-7.71966 15.0021L6.50257 14.9998L20.7248 14.9975L20.7238 8.79597L6.50157 8.79826ZM6.50257 14.9998V0.777535H5.25127V14.9998V29.222H6.50257V14.9998ZM5.25127 14.9998H19.4735V8.79826H5.25127H-8.97096V14.9998H5.25127ZM9.50229 9.53844V-4.68378C1.09594 -4.68378 -5.72017 2.13233 -5.72017 10.5387H8.50205H22.7243C22.7243 17.8418 16.8054 23.7607 9.50229 23.7607V9.53844ZM8.50205 10.5387H-5.72017V14.9998H8.50205H22.7243V10.5387H8.50205ZM8.50205 14.9998H-5.72017C-5.72017 23.401 1.0913 30.2222 9.50229 30.2222V16V1.77778C16.81 1.77778 22.7243 7.70082 22.7243 14.9998H8.50205ZM9.50229 16V30.2222H10.7526V16V1.77778H9.50229V16ZM10.7526 16V30.2222C19.1636 30.2222 25.9751 23.401 25.9751 14.9998H11.7528H-2.46939C-2.46939 7.70082 3.44486 1.77778 10.7526 1.77778V16ZM11.7528 14.9998H25.9751V10.5387H11.7528H-2.46939V14.9998H11.7528ZM11.7528 10.5387H25.9751C25.9751 2.13233 19.1589 -4.68378 10.7526 -4.68378V9.53844V23.7607C3.44951 23.7607 -2.46939 17.8418 -2.46939 10.5387H11.7528ZM10.7526 9.53844V-4.68378H9.50229V9.53844V23.7607H10.7526V9.53844ZM9.50229 14.9998H23.7245V10.5387H9.50229H-4.71993V14.9998H9.50229ZM9.50229 10.5387V24.7609H10.7526V10.5387V-3.68354H9.50229V10.5387ZM10.7526 10.5387L-3.46963 10.5419L-3.46863 15.0029L10.7536 14.9998L24.9758 14.9966L24.9748 10.5355L10.7526 10.5387ZM10.7536 14.9998V0.777535H9.50229V14.9998V29.222H10.7536V14.9998ZM16.0039 14.9998H30.2261V5.28742H16.0039H1.78163V14.9998H16.0039ZM16.0039 5.28742H30.2261C30.2261 -3.11893 23.41 -9.93505 15.0036 -9.93505V4.28718V18.5094C7.70053 18.5094 1.78163 12.5905 1.78163 5.28742H16.0039ZM15.0036 4.28718V-9.93505H13.7533V4.28718V18.5094H15.0036V4.28718ZM13.7533 4.28718V-9.93505C5.34697 -9.93505 -1.46915 -3.11893 -1.46915 5.28742H12.7531H26.9753C26.9753 12.5905 21.0564 18.5094 13.7533 18.5094V4.28718ZM12.7531 5.28742H-1.46915V14.9998H12.7531H26.9753V5.28742H12.7531ZM12.7531 14.9998H-1.46915C-1.46915 23.401 5.34232 30.2222 13.7533 30.2222V16V1.77778C21.061 1.77778 26.9753 7.70082 26.9753 14.9998H12.7531ZM13.7533 16V30.2222H15.0036V16V1.77778H13.7533V16ZM15.0036 16V30.2222C23.4146 30.2222 30.2261 23.401 30.2261 14.9998H16.0039H1.78163C1.78163 7.70082 7.69589 1.77778 15.0036 1.77778V16ZM13.7533 5.28742V19.5096H15.0036V5.28742V-8.9348H13.7533V5.28742ZM15.0036 5.28742L0.781393 5.28888L0.782393 15.0012L15.0046 14.9998L29.2268 14.9983L29.2258 5.28595L15.0036 5.28742ZM15.0046 14.9998V0.777535H13.7533V14.9998V29.222H15.0046V14.9998ZM13.7533 14.9998H27.9755V5.28742H13.7533H-0.468908V14.9998H13.7533ZM1.97398 7.37142L12.0306 17.4281L15.8045 13.6541L5.74789 3.59751L-4.30874 -6.45912L-8.08265 -2.68521L1.97398 7.37142ZM5.74789 3.59751L15.7815 13.6772C13.7851 15.6644 11.2254 16.989 8.45016 17.4712L6.01591 3.4588L3.58167 -10.5536C0.603466 -10.0362 -2.14333 -8.61468 -4.28568 -6.48213L5.74789 3.59751ZM6.01591 3.4588L8.45016 17.4712C5.67485 17.9533 2.81843 17.5695 0.268827 16.372L6.31502 3.49899L12.3612 -9.37405C9.62519 -10.6591 6.55991 -11.0709 3.58167 -10.5536L6.01591 3.4588ZM6.31502 3.49899L0.26247 16.369L3.24119 17.7699L9.29374 4.89982L15.3463 -7.97023L12.3676 -9.37106L6.31502 3.49899ZM9.29374 4.89982L3.23659 17.7677C6.16356 19.1455 9.44427 19.5868 12.6313 19.0316L10.1902 5.02043L7.74922 -8.99074C10.328 -9.44001 12.9825 -9.08289 15.3509 -7.96806L9.29374 4.89982ZM10.1902 5.02043L12.6313 19.0316C15.8183 18.4764 18.7564 16.9516 21.045 14.6651L10.9931 4.60375L0.941262 -5.45762C2.79307 -7.30768 5.17048 -8.54147 7.74922 -8.99074L10.1902 5.02043ZM10.9931 4.60375L21.0491 14.6611L24.7935 10.9172L14.7376 0.859851L4.68159 -9.19745L0.937192 -5.45355L10.9931 4.60375ZM14.7376 0.859851L24.6179 11.0897C26.0241 9.73159 27.1456 8.10704 27.9172 6.31092L14.8496 0.697514L1.78206 -4.91589C2.5012 -6.58998 3.54655 -8.10415 4.85721 -9.37003L14.7376 0.859851ZM14.8496 0.697514L27.9172 6.31092C28.6887 4.5148 29.0949 2.58294 29.1119 0.628049L14.8902 0.504466L0.668528 0.380884C0.684362 -1.4412 1.06293 -3.24181 1.78206 -4.91589L14.8496 0.697514ZM14.8902 0.504466L29.1119 0.628049C29.1289 -1.32676 28.7564 -3.26539 28.0161 -5.07473L14.853 0.310742L1.68985 5.69621C0.999881 4.0098 0.652696 2.20288 0.668528 0.380884L14.8902 0.504466ZM14.853 0.310742L28.0161 -5.07473C27.2759 -6.88411 26.1827 -8.52787 24.8004 -9.91015L14.7438 0.146482L4.68712 10.2031C3.39876 8.91475 2.37983 7.38267 1.68985 5.69621L14.853 0.310742ZM14.7438 0.146482L24.8004 -9.91015C23.4181 -11.2924 21.7743 -12.3856 19.965 -13.1259L14.5795 0.0372422L9.19402 13.2004C7.50758 12.5104 5.97549 11.4915 4.68712 10.2031L14.7438 0.146482ZM14.5795 0.0372422L19.965 -13.1259C18.1556 -13.8662 16.217 -14.2387 14.2622 -14.2217L14.3858 1.88829e-05L14.5093 14.2217C12.6873 14.2375 10.8804 13.8903 9.19402 13.2004L14.5795 0.0372422ZM14.3858 1.88829e-05L14.2622 -14.2217C12.3074 -14.2047 10.3755 -13.7985 8.57931 -13.027L14.1927 0.0406032L19.8061 13.1082C18.132 13.8273 16.3314 14.2059 14.5093 14.2217L14.3858 1.88829e-05ZM14.1927 0.0406032L8.57931 -13.027C6.78309 -12.2554 5.15857 -11.1338 3.80051 -9.72766L14.0304 0.152681L24.2603 10.033C22.9945 11.3436 21.4803 12.389 19.8061 13.1082L14.1927 0.0406032ZM14.0304 0.152681L3.97375 -9.90395L0.22935 -6.15955L10.286 3.89708L20.3426 13.9537L24.087 10.2093L14.0304 0.152681ZM10.286 3.89708L0.240356 -6.17054C2.23755 -8.16337 4.80047 -9.49213 7.58005 -9.97586L10.0185 4.03577L12.4569 18.0474C15.4391 17.5284 18.1888 16.1028 20.3316 13.9647L10.286 3.89708ZM10.0185 4.03577L7.58005 -9.97586C10.3596 -10.4596 13.2208 -10.0748 15.7738 -8.8738L9.71984 3.99561L3.66591 16.865C6.40502 18.1535 9.47472 18.5664 12.4569 18.0474L10.0185 4.03577ZM9.71984 3.99561L15.7759 -8.87278L12.7972 -10.2746L6.74112 2.59377L0.685032 15.4622L3.66375 16.864L9.71984 3.99561ZM6.74112 2.59377L12.7622 -10.291C9.84162 -11.6558 6.57217 -12.0902 3.39652 -11.5354L5.84415 2.47459L8.29178 16.4846C5.7244 16.9331 3.0812 16.582 0.720017 15.4786L6.74112 2.59377ZM5.84415 2.47459L3.39652 -11.5354C0.220852 -10.9806 -2.70764 -9.4634 -4.99248 -7.18917L5.04071 2.89084L15.0739 12.9709C13.2267 14.8095 10.8592 16.0361 8.29178 16.4846L5.84415 2.47459ZM5.04071 2.89084L-5.01591 -7.16579L-8.78982 -3.39188L1.26681 6.66475L11.3234 16.7214L15.0973 12.9475L5.04071 2.89084ZM1.26681 6.66475L-8.61354 -3.56513C-10.0197 -2.20705 -11.1412 -0.582517 -11.9128 1.21368L1.15473 6.82709L14.2223 12.4405C13.5031 14.1147 12.4577 15.6288 11.1472 16.8946L1.26681 6.66475ZM1.15473 6.82709L-11.9128 1.21368C-12.6844 3.00986 -13.0906 4.94173 -13.1075 6.89655L1.11414 7.02013L15.3358 7.14372C15.32 8.96573 14.9415 10.7663 14.2223 12.4405L1.15473 6.82709ZM1.11414 7.02013L-13.1075 6.89655C-13.1245 8.85141 -12.752 10.79 -12.0118 12.5993L1.15137 7.21386L14.3145 1.82839C15.0045 3.51475 15.3517 5.32167 15.3358 7.14372L1.11414 7.02013ZM1.15137 7.21386L-12.0118 12.5993C-11.2715 14.4086 -10.1784 16.0524 -8.79602 17.4347L1.26061 7.37812L11.3172 -2.67851C12.6057 -1.39009 13.6246 0.142015 14.3145 1.82839L1.15137 7.21386ZM1.26061 7.37812L-8.79602 17.4347C-7.41375 18.817 -5.76999 19.9102 -3.9606 20.6505L1.42487 7.48736L6.81033 -5.67578C8.4968 -4.9858 10.0289 -3.96687 11.3172 -2.67851L1.26061 7.37812ZM1.42487 7.48736L-3.9606 20.6505C-2.15126 21.3908 -0.212632 21.7633 1.74217 21.7463L1.61859 7.52458L1.49501 -6.6971C3.317 -6.71294 5.12392 -6.36575 6.81033 -5.67578L1.42487 7.48736ZM1.61859 7.52458L1.74217 21.7463C3.69706 21.7293 5.62892 21.3231 7.42505 20.5516L1.81164 7.484L-3.80177 -5.58357C-2.12768 -6.3027 -0.327072 -6.68127 1.49501 -6.6971L1.61859 7.52458ZM1.81164 7.484L7.42505 20.5516C9.22116 19.78 10.8457 18.6585 12.2039 17.2523L1.97398 7.37192L-8.2559 -2.50843C-6.99003 -3.81908 -5.47585 -4.86444 -3.80177 -5.58357L1.81164 7.484ZM1.97398 7.37192H16.1962V7.37142H1.97398H-12.2482V7.37192H1.97398Z" fill="#705D4B" mask="url(#path-1-inside-1_7_2045)"/>
</svg>
