<svg width="16" height="18" viewBox="0 0 16 18" fill="none" xmlns="http://www.w3.org/2000/svg">
<path d="M6.66895 9.90332C6.6689 13.4183 3.94958 16.295 0.5 16.5508V7.16895C0.500083 3.65407 3.21943 0.776343 6.66895 0.520508V9.90332Z" stroke="#705D4B"/>
<path d="M12.1045 0.5C13.9798 0.5 15.4999 2.02021 15.5 3.89551V4.12012C15.5 5.99547 13.9798 7.5166 12.1045 7.5166C10.2292 7.51653 8.70898 5.99543 8.70898 4.12012V3.89551C8.70905 2.02025 10.2292 0.500068 12.1045 0.5Z" stroke="#705D4B"/>
<path d="M12.1045 9.55615C13.9798 9.55615 15.4999 11.0764 15.5 12.9517V13.1763C15.5 15.0516 13.9798 16.5728 12.1045 16.5728C10.2292 16.5727 8.70898 15.0516 8.70898 13.1763V12.9517C8.70905 11.0764 10.2292 9.55622 12.1045 9.55615Z" stroke="#705D4B"/>
</svg>
