<svg width="16" height="18" viewBox="0 0 16 18" fill="none" xmlns="http://www.w3.org/2000/svg">
<path d="M10.5703 6.9812C10.5118 7.10518 10.4501 7.2277 10.3848 7.34839H10.2041M10.5703 6.9812L10.2041 7.34839M10.5703 6.9812L10.2041 7.34839M10.5703 6.9812C10.5966 6.92544 10.6206 6.86864 10.6455 6.81226C10.5652 6.6308 10.4794 6.45179 10.3848 6.2771H9.08203M10.2041 7.34839H8.01172M7.7207 6.2771H9.08203M7.7207 6.2771V7.34839M7.7207 6.2771H6.30469M7.7207 6.2771V7.34839M9.08203 6.2771L8.01172 7.34839M9.08203 6.2771L8.01172 7.34839M8.01172 7.34839H7.7207M7.7207 7.34839H7.37598M7.37598 7.34839H6.30469M7.37598 7.34839L6.83984 6.81226M7.37598 7.34839L6.30469 6.2771M6.30469 7.34839L6.83984 6.81226M6.30469 7.34839H5.2373M6.30469 7.34839L6.83984 6.81226M6.83984 6.81226L6.30469 6.2771M5.2373 7.34839H5C4.91651 7.19423 4.83896 7.03716 4.7666 6.87769M5.2373 7.34839L4.7666 6.87769M5.2373 7.34839L4.7666 6.87769M4.7666 6.87769C4.67732 6.68091 4.59534 6.48092 4.52344 6.2771H6.30469M8.21094 3.79565C8.43792 3.96071 8.65663 4.1386 8.86523 4.32983H7.7207M8.21094 3.79565H7.7207M8.21094 3.79565C7.94153 3.59975 7.66064 3.42185 7.36914 3.2644M8.21094 3.79565H6.83789M7.7207 4.32983V3.79565M7.7207 4.32983V3.79565M7.7207 4.32983H6.30469M7.7207 3.79565H6.83789M6.30469 4.32983L6.83691 3.79663M6.30469 4.32983H4.52344C4.587 4.14964 4.65818 3.97235 4.73535 3.79761M6.30469 4.32983L6.83691 3.79663M6.83691 3.79663L6.83789 3.79565M6.83691 3.79663L4.73535 3.79761M6.83691 3.79663L4.73535 3.79761M6.83691 3.79663L6.83789 3.79565M6.83789 3.79565L4.73535 3.79663M6.83789 3.79565L7.36914 3.2644M6.83789 3.79565L4.73535 3.79663M6.83789 3.79565L6.84082 3.7937L7.36914 3.2644M4.73535 3.79761V3.79663M4.73535 3.79663C4.81606 3.61394 4.90381 3.43439 4.99902 3.25854H7.35742C7.36127 3.26061 7.3653 3.26233 7.36914 3.2644M7.69141 10.1755C7.27561 9.92333 6.88347 9.62924 6.52051 9.29663H7.7207C7.86266 9.29663 7.99921 9.35254 8.09961 9.45288C8.19256 9.54583 8.24523 9.67004 8.25293 9.80054C8.0713 9.93454 7.88357 10.059 7.69141 10.1755Z" fill="#705D4B" stroke="#705D4B" stroke-width="16"/>
<mask id="path-2-inside-1_7_2018" fill="white">
<path d="M5.2122 16.6581H1.89902C1.67948 16.6578 1.46902 16.5704 1.31378 16.4152C1.15854 16.26 1.07119 16.0495 1.07088 15.83V1.89902C1.07088 1.44212 1.44271 1.07088 1.89902 1.07088H13.4859C13.9422 1.07088 14.3141 1.44271 14.3141 1.89902V6.98272C14.3141 7.12473 14.3705 7.26092 14.4709 7.36133C14.5713 7.46175 14.7075 7.51816 14.8495 7.51816C14.9915 7.51816 15.1277 7.46175 15.2281 7.36133C15.3285 7.26092 15.3849 7.12473 15.3849 6.98272V1.89902C15.3845 1.39562 15.1843 0.91296 14.8284 0.556943C14.4725 0.200926 13.9899 0.000630019 13.4865 0H1.89902C1.39556 0.000629718 0.912906 0.200907 0.556907 0.556907C0.200907 0.912906 0.000629718 1.39556 0 1.89902V15.83C0.000629718 16.3334 0.200907 16.8161 0.556907 17.1721C0.912906 17.5281 1.39556 17.7284 1.89902 17.729H5.2122C5.35421 17.729 5.4904 17.6726 5.59081 17.5722C5.69123 17.4717 5.74764 17.3356 5.74764 17.1935C5.74764 17.0515 5.69123 16.9153 5.59081 16.8149C5.4904 16.7145 5.35421 16.6581 5.2122 16.6581Z"/>
</mask>
<path d="M5.2122 16.6581H1.89902C1.67948 16.6578 1.46902 16.5704 1.31378 16.4152C1.15854 16.26 1.07119 16.0495 1.07088 15.83V1.89902C1.07088 1.44212 1.44271 1.07088 1.89902 1.07088H13.4859C13.9422 1.07088 14.3141 1.44271 14.3141 1.89902V6.98272C14.3141 7.12473 14.3705 7.26092 14.4709 7.36133C14.5713 7.46175 14.7075 7.51816 14.8495 7.51816C14.9915 7.51816 15.1277 7.46175 15.2281 7.36133C15.3285 7.26092 15.3849 7.12473 15.3849 6.98272V1.89902C15.3845 1.39562 15.1843 0.91296 14.8284 0.556943C14.4725 0.200926 13.9899 0.000630019 13.4865 0H1.89902C1.39556 0.000629718 0.912906 0.200907 0.556907 0.556907C0.200907 0.912906 0.000629718 1.39556 0 1.89902V15.83C0.000629718 16.3334 0.200907 16.8161 0.556907 17.1721C0.912906 17.5281 1.39556 17.7284 1.89902 17.729H5.2122C5.35421 17.729 5.4904 17.6726 5.59081 17.5722C5.69123 17.4717 5.74764 17.3356 5.74764 17.1935C5.74764 17.0515 5.69123 16.9153 5.59081 16.8149C5.4904 16.7145 5.35421 16.6581 5.2122 16.6581Z" fill="#705D4B"/>
<path d="M1.89902 16.6581L1.87608 32.6581L1.88755 32.6581H1.89902V16.6581ZM1.07088 15.83H-14.9291V15.8414L-14.9291 15.8529L1.07088 15.83ZM15.3849 1.89902H31.385V1.89152L31.3849 1.88401L15.3849 1.89902ZM13.4865 0L13.5065 -16L13.4965 -16H13.4865V0ZM1.89902 0V-16H1.88902L1.87901 -16L1.89902 0ZM0 1.89902L-16 1.87901L-16 1.88902V1.89902H0ZM0 15.83H-16V15.84L-16 15.85L0 15.83ZM1.89902 17.729L1.87901 33.729L1.88902 33.729H1.89902V17.729ZM5.2122 17.729V1.72898V17.729ZM5.2122 16.6581V0.658105H1.89902V16.6581V32.6581H5.2122V16.6581ZM1.89902 16.6581L1.92196 0.658121C5.93796 0.663879 9.78779 2.26179 12.6275 5.10149L1.31378 16.4152L-9.99992 27.7289C-6.84974 30.8791 -2.579 32.6517 1.87608 32.6581L1.89902 16.6581ZM1.31378 16.4152L12.6275 5.10149C15.4672 7.94121 17.0651 11.7911 17.0709 15.807L1.07088 15.83L-14.9291 15.8529C-14.9227 20.3079 -13.1501 24.5787 -9.99992 27.7289L1.31378 16.4152ZM1.07088 15.83H17.0709V1.89902H1.07088H-14.9291V15.83H1.07088ZM1.07088 1.89902H17.0709C17.0709 10.2861 10.2718 17.0709 1.89902 17.0709V1.07088V-14.9291C-7.38637 -14.9291 -14.9291 -7.40192 -14.9291 1.89902H1.07088ZM1.89902 1.07088V17.0709H13.4859V1.07088V-14.9291H1.89902V1.07088ZM13.4859 1.07088V17.0709C5.10569 17.0709 -1.68593 10.2793 -1.68593 1.89902H14.3141H30.3141C30.3141 -7.39385 22.7788 -14.9291 13.4859 -14.9291V1.07088ZM14.3141 1.89902H-1.68593V6.98272H14.3141H30.3141V1.89902H14.3141ZM14.3141 6.98272H-1.68593C-1.68593 11.3682 0.0562289 15.5741 3.15719 18.675L14.4709 7.36133L25.7846 -3.95238C28.6847 -1.05224 30.3141 2.88121 30.3141 6.98272H14.3141ZM14.4709 7.36133L3.15719 18.675C6.25816 21.776 10.464 23.5182 14.8495 23.5182V7.51816V-8.48184C18.951 -8.48184 22.8845 -6.85251 25.7846 -3.95238L14.4709 7.36133ZM14.8495 7.51816V23.5182C19.235 23.5182 23.4408 21.776 26.5418 18.675L15.2281 7.36133L3.91441 -3.95238C6.81458 -6.85254 10.748 -8.48184 14.8495 -8.48184V7.51816ZM15.2281 7.36133L26.5418 18.675C29.6428 15.5741 31.385 11.3682 31.385 6.98272H15.3849H-0.61505C-0.61505 2.88121 1.01428 -1.05224 3.91441 -3.95238L15.2281 7.36133ZM15.3849 6.98272H31.385V1.89902H15.3849H-0.61505V6.98272H15.3849ZM15.3849 1.89902L31.3849 1.88401C31.3805 -2.8568 29.4956 -7.40223 26.1439 -10.755L14.8284 0.556943L3.51295 11.8689C0.873044 9.22815 -0.61154 5.64804 -0.615043 1.91403L15.3849 1.89902ZM14.8284 0.556943L26.1439 -10.755C22.7922 -14.1078 18.2473 -15.9941 13.5065 -16L13.4865 0L13.4665 16C9.7325 15.9953 6.15286 14.5096 3.51295 11.8689L14.8284 0.556943ZM13.4865 0V-16H1.89902V0V16H13.4865V0ZM1.89902 0L1.87901 -16C-2.86097 -15.9941 -7.40512 -14.1085 -10.7568 -10.7568L0.556907 0.556907L11.8706 11.8706C9.23094 14.5103 5.6521 15.9953 1.91904 16L1.89902 0ZM0.556907 0.556907L-10.7568 -10.7568C-14.1085 -7.40512 -15.9941 -2.86097 -16 1.87901L0 1.89902L16 1.91904C15.9953 5.6521 14.5103 9.23094 11.8706 11.8706L0.556907 0.556907ZM0 1.89902H-16V15.83H0H16V1.89902H0ZM0 15.83L-16 15.85C-15.9941 20.59 -14.1085 25.1341 -10.7568 28.4858L0.556907 17.1721L11.8706 5.85837C14.5103 8.49804 15.9953 12.0769 16 15.8099L0 15.83ZM0.556907 17.1721L-10.7568 28.4858C-7.40513 31.8375 -2.86098 33.723 1.87901 33.729L1.89902 17.729L1.91904 1.729C5.65211 1.73366 9.23094 3.21869 11.8706 5.85837L0.556907 17.1721ZM1.89902 17.729V33.729H5.2122V17.729V1.72898H1.89902V17.729ZM5.2122 17.729V33.729C9.59764 33.729 13.8035 31.9869 16.9045 28.8859L5.59081 17.5722L-5.72289 6.25845C-2.8227 3.35825 1.11078 1.72898 5.2122 1.72898V17.729ZM5.59081 17.5722L16.9045 28.8859C20.0055 25.7849 21.7476 21.579 21.7476 17.1935H5.74764H-10.2524C-10.2524 13.0921 -8.62306 9.15861 -5.72289 6.25845L5.59081 17.5722ZM5.74764 17.1935H21.7476C21.7476 12.8081 20.0055 8.60221 16.9045 5.50122L5.59081 16.8149L-5.72289 28.1286C-8.62306 25.2285 -10.2524 21.295 -10.2524 17.1935H5.74764ZM5.59081 16.8149L16.9045 5.50122C13.8035 2.4002 9.59764 0.658105 5.2122 0.658105V16.6581V32.6581C1.11078 32.6581 -2.8227 31.0288 -5.72289 28.1286L5.59081 16.8149Z" fill="#705D4B" mask="url(#path-2-inside-1_7_2018)"/>
<mask id="path-4-inside-2_7_2018" fill="white">
<path d="M15.4174 9.40831C15.0434 9.03492 14.5365 8.8252 14.008 8.8252C13.4795 8.8252 12.9726 9.03492 12.5986 9.40831L7.67556 14.3314C7.52018 14.4862 7.41702 14.6856 7.38047 14.9019L7.11157 16.4981C7.08364 16.664 7.09578 16.8342 7.14697 16.9945C7.19817 17.1547 7.28693 17.3004 7.40586 17.4194C7.5248 17.5384 7.67045 17.6272 7.83069 17.6785C7.99092 17.7298 8.16109 17.742 8.32701 17.7142L9.92203 17.4447C10.1398 17.4084 10.3379 17.3066 10.4938 17.1502L15.4168 12.2271C15.7902 11.8531 15.9999 11.3463 16 10.8178C16.0001 10.2894 15.7906 9.78248 15.4174 9.40831ZM9.74533 16.3887L8.16757 16.676L8.43231 15.0881L11.9751 11.5453L13.2804 12.8506L9.74533 16.3887ZM14.6601 11.4698L14.0372 12.0932L12.7319 10.788L13.3554 10.1645C13.535 9.9848 13.7718 9.89497 14.008 9.89497C14.1905 9.89485 14.369 9.9489 14.5207 10.0503C14.6725 10.1516 14.7908 10.2957 14.8606 10.4643C14.9304 10.633 14.9486 10.8185 14.9129 10.9975C14.8772 11.1765 14.7892 11.3408 14.6601 11.4698Z"/>
</mask>
<path d="M15.4174 9.40831C15.0434 9.03492 14.5365 8.8252 14.008 8.8252C13.4795 8.8252 12.9726 9.03492 12.5986 9.40831L7.67556 14.3314C7.52018 14.4862 7.41702 14.6856 7.38047 14.9019L7.11157 16.4981C7.08364 16.664 7.09578 16.8342 7.14697 16.9945C7.19817 17.1547 7.28693 17.3004 7.40586 17.4194C7.5248 17.5384 7.67045 17.6272 7.83069 17.6785C7.99092 17.7298 8.16109 17.742 8.32701 17.7142L9.92203 17.4447C10.1398 17.4084 10.3379 17.3066 10.4938 17.1502L15.4168 12.2271C15.7902 11.8531 15.9999 11.3463 16 10.8178C16.0001 10.2894 15.7906 9.78248 15.4174 9.40831ZM9.74533 16.3887L8.16757 16.676L8.43231 15.0881L11.9751 11.5453L13.2804 12.8506L9.74533 16.3887ZM14.6601 11.4698L14.0372 12.0932L12.7319 10.788L13.3554 10.1645C13.535 9.9848 13.7718 9.89497 14.008 9.89497C14.1905 9.89485 14.369 9.9489 14.5207 10.0503C14.6725 10.1516 14.7908 10.2957 14.8606 10.4643C14.9304 10.633 14.9486 10.8185 14.9129 10.9975C14.8772 11.1765 14.7892 11.3408 14.6601 11.4698Z" fill="#829B85"/>
<path d="M15.4174 9.40831L26.7461 -1.89043L26.734 -1.90252L26.7219 -1.91459L15.4174 9.40831ZM12.5986 9.40831L1.29412 -1.9146L1.28492 -1.90539L12.5986 9.40831ZM7.67556 14.3314L18.9683 25.666L18.9788 25.6556L18.9893 25.6451L7.67556 14.3314ZM7.38047 14.9019L-8.3959 12.2362L-8.39719 12.2439L7.38047 14.9019ZM7.11157 16.4981L-8.6661 13.8401L-8.66647 13.8423L7.11157 16.4981ZM8.32701 17.7142L10.9751 33.4935L10.9839 33.492L10.9927 33.4905L8.32701 17.7142ZM9.92203 17.4447L7.29164 1.66236L7.27399 1.6653L7.25635 1.66828L9.92203 17.4447ZM10.4938 17.1502L-0.819954 5.83646L-0.830729 5.84724L-0.841483 5.85803L10.4938 17.1502ZM15.4168 12.2271L26.7305 23.5408L26.7356 23.5357L26.7407 23.5306L15.4168 12.2271ZM9.74533 16.3887L12.6122 32.1297L17.5304 31.234L21.0638 27.6976L9.74533 16.3887ZM8.16757 16.676L-7.61457 14.0447L-11.3577 36.4953L11.0344 32.4171L8.16757 16.676ZM8.43231 15.0881L-2.88139 3.77443L-6.50666 7.3997L-7.34983 12.4568L8.43231 15.0881ZM11.9751 11.5453L23.2888 0.231604L11.9751 -11.0821L0.661427 0.231604L11.9751 11.5453ZM13.2804 12.8506L24.5989 24.1595L35.9031 12.8458L24.5941 1.53689L13.2804 12.8506ZM14.6601 11.4698L3.35653 0.145881L3.34874 0.153658L3.34096 0.161446L14.6601 11.4698ZM14.0372 12.0932L2.72346 23.407L14.0426 34.7261L25.3563 23.4016L14.0372 12.0932ZM12.7319 10.788L1.41818 -0.525745L-9.89552 10.788L1.41818 22.1017L12.7319 10.788ZM14.008 9.89497V25.895L14.018 25.895L14.008 9.89497ZM15.4174 9.40831L26.7219 -1.91459C23.3481 -5.28295 18.7755 -7.1748 14.008 -7.1748V8.8252V24.8252C10.2976 24.8252 6.73874 23.3528 4.11291 20.7312L15.4174 9.40831ZM14.008 8.8252V-7.1748C9.24058 -7.1748 4.66796 -5.28295 1.29412 -1.91459L12.5986 9.40831L23.9031 20.7312C21.2773 23.3528 17.7185 24.8252 14.008 24.8252V8.8252ZM12.5986 9.40831L1.28492 -1.90539L-3.63815 3.01767L7.67556 14.3314L18.9893 25.6451L23.9123 20.722L12.5986 9.40831ZM7.67556 14.3314L-3.6172 2.99676C-6.13349 5.50376 -7.80412 8.7339 -8.3959 12.2362L7.38047 14.9019L23.1569 17.5676C22.6382 20.6374 21.1738 23.4686 18.9683 25.666L7.67556 14.3314ZM7.38047 14.9019L-8.39719 12.2439L-8.6661 13.8401L7.11157 16.4981L22.8892 19.1562L23.1581 17.56L7.38047 14.9019ZM7.11157 16.4981L-8.66647 13.8423C-9.11776 16.5233 -8.92157 19.2734 -8.09428 21.8631L7.14697 16.9945L22.3882 12.1258C23.1131 14.3951 23.285 16.8048 22.8896 19.154L7.11157 16.4981ZM7.14697 16.9945L-8.09428 21.8631C-7.26699 24.453 -5.83256 26.8075 -3.91061 28.7304L7.40586 17.4194L18.7223 6.10848C20.4064 7.79338 21.6633 9.85648 22.3882 12.1258L7.14697 16.9945ZM7.40586 17.4194L-3.91061 28.7304C-1.98869 30.6532 0.365101 32.0888 2.95455 32.9174L7.83069 17.6785L12.7068 2.43964C14.9758 3.16567 17.0383 4.42359 18.7223 6.10848L7.40586 17.4194ZM7.83069 17.6785L2.95455 32.9174C5.54397 33.746 8.29393 33.9435 10.9751 33.4935L8.32701 17.7142L5.6789 1.93483C8.02826 1.54055 10.4379 1.71362 12.7068 2.43964L7.83069 17.6785ZM8.32701 17.7142L10.9927 33.4905L12.5877 33.221L9.92203 17.4447L7.25635 1.66828L5.66133 1.93779L8.32701 17.7142ZM9.92203 17.4447L12.5524 33.227C16.0499 32.6441 19.298 30.9829 21.829 28.4423L10.4938 17.1502L-0.841483 5.85803C1.37775 3.63033 4.22965 2.17269 7.29164 1.66236L9.92203 17.4447ZM10.4938 17.1502L21.8075 28.4639L26.7305 23.5408L15.4168 12.2271L4.10311 0.913396L-0.819954 5.83646L10.4938 17.1502ZM15.4168 12.2271L26.7407 23.5306C30.1076 20.1577 31.999 15.587 32 10.8212L16 10.8178L-9.05991e-06 10.8145C0.000773907 7.1056 1.47273 3.5485 4.09294 0.923581L15.4168 12.2271ZM16 10.8178L32 10.8212C32.001 6.05546 30.1115 1.48392 26.7461 -1.89043L15.4174 9.40831L4.08876 20.7071C1.46967 18.081 -0.00079155 14.5233 -9.05991e-06 10.8145L16 10.8178ZM9.74533 16.3887L6.87846 0.647592L5.3007 0.934944L8.16757 16.676L11.0344 32.4171L12.6122 32.1297L9.74533 16.3887ZM8.16757 16.676L23.9497 19.3073L24.2145 17.7195L8.43231 15.0881L-7.34983 12.4568L-7.61457 14.0447L8.16757 16.676ZM8.43231 15.0881L19.746 26.4018L23.2888 22.859L11.9751 11.5453L0.661427 0.231604L-2.88139 3.77443L8.43231 15.0881ZM11.9751 11.5453L0.661427 22.859L1.96671 24.1643L13.2804 12.8506L24.5941 1.53689L23.2888 0.231604L11.9751 11.5453ZM13.2804 12.8506L1.96195 1.54164L-1.57313 5.07971L9.74533 16.3887L21.0638 27.6976L24.5989 24.1595L13.2804 12.8506ZM14.6601 11.4698L3.34096 0.161446L2.71807 0.784935L14.0372 12.0932L25.3563 23.4016L25.9792 22.7781L14.6601 11.4698ZM14.0372 12.0932L25.3509 0.779536L24.0456 -0.525745L12.7319 10.788L1.41818 22.1017L2.72346 23.407L14.0372 12.0932ZM12.7319 10.788L24.0456 22.1017L24.6691 21.4782L13.3554 10.1645L2.04167 -1.14923L1.41818 -0.525745L12.7319 10.788ZM13.3554 10.1645L24.6691 21.4782C21.707 24.4403 17.8114 25.895 14.008 25.895V9.89497V-6.10503C9.73228 -6.10503 5.3631 -4.47066 2.04167 -1.14923L13.3554 10.1645ZM14.008 9.89497L14.018 25.895C11.034 25.8968 8.11644 25.0132 5.63486 23.3559L14.5207 10.0503L23.4066 -3.25543C20.6215 -5.11541 17.3471 -6.10712 13.998 -6.10503L14.008 9.89497ZM14.5207 10.0503L5.63486 23.3559C3.1533 21.6987 1.21928 19.3424 0.0776887 16.5853L14.8606 10.4643L29.6435 4.34342C28.3623 1.24908 26.1917 -1.39548 23.4066 -3.25543L14.5207 10.0503ZM14.8606 10.4643L0.0776887 16.5853C-1.06391 13.8281 -1.36169 10.7943 -0.778016 7.86791L14.9129 10.9975L30.6039 14.1271C31.2589 10.8427 30.9247 7.43779 29.6435 4.34342L14.8606 10.4643ZM14.9129 10.9975L-0.778016 7.86791C-0.194342 4.9415 1.24456 2.25406 3.35653 0.145881L14.6601 11.4698L25.9636 22.7936C28.3339 20.4276 29.9488 17.4114 30.6039 14.1271L14.9129 10.9975Z" fill="#705D4B" mask="url(#path-4-inside-2_7_2018)"/>
</svg>
